<svg width="48" height="47" viewBox="0 0 48 47" fill="none" xmlns="http://www.w3.org/2000/svg">
<path fill-rule="evenodd" clip-rule="evenodd" d="M18.0228 4.08586C19.8626 -1.35862 27.5466 -1.35862 29.3864 4.08586C29.9413 5.73525 31.8211 6.51733 33.3809 5.74528C38.5202 3.1985 43.9546 8.648 41.4149 13.8017C40.645 15.3659 41.4249 17.2459 43.0697 17.8074C48.499 19.6523 48.499 27.3578 43.0697 29.2027C41.4249 29.7591 40.645 31.6442 41.4149 33.2083C43.9546 38.362 38.5202 43.8115 33.3809 41.2647C31.8211 40.4927 29.9413 41.2748 29.3864 42.9242C27.5466 48.3686 19.8626 48.3686 18.0228 42.9242C17.4679 41.2748 15.5881 40.4927 14.0283 41.2647C8.88899 43.8115 3.45467 38.362 5.99435 33.2083C6.76426 31.6442 5.98436 29.7591 4.33956 29.2027C-1.08975 27.3578 -1.08975 19.6523 4.33956 17.8074C5.98436 17.2509 6.76426 15.3659 5.99435 13.8017C3.45467 8.648 8.88899 3.1985 14.0283 5.74528C15.5881 6.51733 17.4679 5.73525 18.0228 4.08586ZM26.4268 5.08853C25.5469 2.4816 21.8673 2.4816 20.9875 5.08853C19.8226 8.53269 15.9031 10.162 12.6485 8.55274C10.1838 7.3345 7.58415 9.94144 8.799 12.413C10.4038 15.6717 8.779 19.6071 5.34444 20.7752C2.74476 21.6576 2.74476 25.3474 5.34444 26.2298C8.779 27.3979 10.4038 31.3283 8.799 34.592C7.58415 37.0636 10.1838 39.6705 12.6485 38.4523C15.8981 36.843 19.8226 38.4723 20.9875 41.9165C21.8673 44.5234 25.5469 44.5234 26.4268 41.9165C27.5916 38.4723 31.5111 36.843 34.7657 38.4523C37.2304 39.6705 39.8301 37.0636 38.6152 34.592C37.0104 31.3333 38.6352 27.3979 42.0698 26.2298C44.6695 25.3474 44.6695 21.6576 42.0698 20.7752C38.6352 19.6071 37.0104 15.6767 38.6152 12.413C39.8301 9.94144 37.2304 7.3345 34.7657 8.55274C31.5161 10.162 27.5916 8.53269 26.4268 5.08853Z" fill="white"/>
</svg>
