<svg width="16" height="16" viewBox="0 0 16 16" fill="none" xmlns="http://www.w3.org/2000/svg">
<path fill-rule="evenodd" clip-rule="evenodd" d="M5.53247 0C2.47855 0 0 2.56 0 5.71429C0 8.86857 2.47855 11.4286 5.53247 11.4286C6.92753 11.4286 8.20044 10.8928 9.17416 10.0133L10.7799 11.6718C10.5834 12.096 10.6542 12.619 10.9941 12.9719L13.6019 15.6654C14.0339 16.1115 14.735 16.1115 15.1669 15.6654C15.5989 15.2192 15.5989 14.4951 15.1669 14.0489L12.5591 11.3554C12.2192 11.0043 11.7111 10.9312 11.3004 11.1342L9.69465 9.47566C10.548 8.46994 11.0649 7.1552 11.0649 5.71429C11.0649 2.56183 8.58462 0 5.53247 0ZM5.53247 0.762514C8.17743 0.762514 10.3267 2.9824 10.3267 5.71429C10.3267 7.04 9.82035 8.24137 8.99889 9.13006C8.96525 9.14834 8.93516 9.17029 8.90683 9.19954C8.8785 9.2288 8.85726 9.25989 8.83955 9.29463C7.97915 10.1431 6.81423 10.6661 5.53247 10.6661C2.88751 10.6661 0.738252 8.44617 0.738252 5.71429C0.738252 2.9824 2.88574 0.762514 5.53247 0.762514ZM11.7766 11.7833C11.8722 11.7833 11.9661 11.8199 12.0369 11.8949L14.6447 14.5883C14.7881 14.7365 14.7881 14.9778 14.6447 15.1278C14.5013 15.2777 14.2676 15.2759 14.1224 15.1278L11.5146 12.4343C11.3694 12.2843 11.3694 12.0448 11.5146 11.8949C11.5872 11.8199 11.681 11.7833 11.7749 11.7833H11.7766Z" fill="#EFEFEF"/>
</svg>