<svg width="19" height="14" viewBox="0 0 19 14" fill="none" xmlns="http://www.w3.org/2000/svg">
<path d="M18.6087 2.08154C18.3895 1.2677 17.7479 0.626027 16.934 0.406917C15.4472 0 9.49996 0 9.49996 0C9.49996 0 3.5527 0 2.06589 0.391267C1.2677 0.610376 0.610376 1.2677 0.391267 2.08154C0 3.56835 0 6.65154 0 6.65154C0 6.65154 0 9.75037 0.391267 11.2215C0.610376 12.0354 1.25205 12.677 2.06589 12.8962C3.56835 13.3031 9.49996 13.3031 9.49996 13.3031C9.49996 13.3031 15.4472 13.3031 16.934 12.9118C17.7479 12.6927 18.3895 12.051 18.6087 11.2372C18.9999 9.75037 18.9999 6.66719 18.9999 6.66719C18.9999 6.66719 19.0156 3.56835 18.6087 2.08154Z" fill="#373737"/>
<path d="M7.60645 9.50007L12.5521 6.65165L7.60645 3.80322V9.50007Z" fill="#EFEFEF"/>
</svg>
